<?xml version="1.0" standalone="no"?>
<!DOCTYPE svg PUBLIC "-//W3C//DTD SVG 20010904//EN"
 "http://www.w3.org/TR/2001/REC-SVG-20010904/DTD/svg10.dtd">
<svg version="1.0" xmlns="http://www.w3.org/2000/svg"
 width="700.000000pt" height="700.000000pt" viewBox="0 0 700.000000 700.000000"
 preserveAspectRatio="xMidYMid meet">
<metadata>
Created by potrace 1.14, written by Peter Selinger 2001-2017
</metadata>
<g transform="translate(0.000000,700.000000) scale(0.100000,-0.100000)"
fill="#000000" stroke="none">
<path d="M3235 6549 c-87 -13 -122 -27 -160 -65 -30 -30 -64 -108 -80 -186
-13 -62 -49 -175 -58 -185 -7 -6 -55 -23 -107 -37 -52 -14 -108 -29 -124 -34
-28 -8 -36 -2 -156 119 -139 139 -166 154 -258 137 -110 -20 -403 -183 -579
-322 -95 -75 -101 -138 -34 -361 l40 -129 -101 -102 -100 -102 -66 20 c-254
76 -309 81 -376 36 -66 -45 -191 -228 -290 -425 -127 -253 -121 -299 68 -480
l113 -108 -36 -127 c-20 -70 -41 -132 -46 -137 -6 -6 -71 -26 -145 -46 -204
-54 -253 -87 -281 -189 -12 -45 -17 -514 -6 -606 16 -140 58 -174 290 -236 72
-19 137 -40 144 -47 9 -9 39 -109 76 -257 1 -3 -55 -61 -125 -131 -131 -131
-143 -151 -140 -231 1 -21 15 -72 31 -113 28 -70 40 -93 101 -200 13 -22 33
-58 46 -81 42 -75 121 -189 155 -223 79 -80 150 -84 354 -22 l129 40 103 -102
103 -102 -19 -55 c-30 -86 -71 -251 -71 -287 0 -43 29 -99 72 -139 69 -65 247
-179 398 -254 241 -121 286 -114 467 73 l108 112 134 -35 135 -36 14 -55 c48
-183 76 -269 98 -302 51 -77 136 -94 469 -91 235 2 291 7 352 34 70 31 93 80
161 345 l17 69 135 35 135 35 120 -121 c135 -136 174 -157 264 -142 48 7 169
62 276 124 33 19 76 43 95 54 63 34 204 133 229 159 32 34 61 100 61 138 0 34
-25 134 -64 258 l-25 79 103 103 102 103 94 -30 c283 -89 327 -80 447 87 45
62 63 90 127 197 10 18 40 75 66 127 120 238 112 287 -72 466 -115 111 -113
107 -94 179 3 11 16 60 29 109 l23 90 70 18 c38 11 81 21 97 24 15 3 59 16 98
29 170 58 186 106 183 520 -3 298 -17 360 -92 409 -33 22 -150 60 -301 98
l-54 13 -28 105 c-48 180 -56 151 75 281 138 138 157 171 144 261 -16 117
-228 496 -338 605 -81 80 -148 78 -415 -8 l-59 -19 -102 104 -102 105 15 48
c46 146 74 261 72 292 -7 95 -58 149 -262 275 -183 113 -344 189 -408 194 -95
7 -121 -8 -254 -142 l-121 -121 -127 35 c-69 19 -131 40 -136 45 -6 6 -26 71
-46 145 -20 74 -46 154 -58 179 -31 63 -87 96 -179 106 -107 11 -473 13 -543
4z m357 -428 c5 -1 27 -82 44 -165 12 -59 37 -126 60 -163 42 -63 76 -78 274
-119 14 -3 50 -12 80 -20 30 -9 69 -19 85 -24 17 -4 71 -20 120 -34 105 -32
178 -36 220 -13 17 8 81 65 144 125 l114 109 71 -40 c39 -21 75 -43 80 -47 5
-5 -7 -65 -27 -137 -45 -160 -50 -209 -27 -261 20 -44 441 -472 489 -497 62
-31 94 -28 294 27 60 17 112 26 117 22 4 -5 26 -41 47 -80 l40 -71 -110 -114
c-121 -127 -146 -168 -140 -232 5 -44 39 -182 72 -283 10 -33 31 -116 46 -184
15 -69 34 -137 41 -152 35 -68 92 -98 261 -139 71 -17 130 -33 132 -35 7 -6 9
-172 2 -182 -3 -5 -64 -24 -134 -41 -172 -42 -226 -71 -262 -141 -9 -17 -27
-85 -41 -151 -14 -67 -34 -149 -45 -182 -70 -220 -85 -318 -56 -372 9 -16 63
-79 121 -140 58 -60 105 -114 106 -120 0 -18 -80 -155 -91 -155 -6 0 -57 13
-113 29 -268 76 -255 81 -503 -179 -33 -36 -104 -105 -156 -153 -146 -137
-155 -174 -92 -395 l38 -133 -24 -17 c-13 -9 -49 -31 -80 -48 l-56 -30 -114
109 c-63 60 -131 117 -152 127 -48 22 -103 17 -227 -19 -157 -47 -240 -69
-345 -92 -117 -25 -142 -36 -181 -81 -39 -45 -57 -91 -91 -233 l-28 -120 -95
0 -95 0 -33 133 c-35 145 -50 182 -91 225 -38 41 -62 52 -195 81 -66 15 -189
47 -275 72 -168 49 -239 57 -286 31 -16 -9 -81 -65 -144 -125 l-115 -109 -75
43 c-87 49 -88 50 -52 169 50 163 56 228 25 286 -21 42 -458 477 -492 490 -47
19 -135 12 -239 -19 -170 -52 -154 -54 -202 28 -22 40 -41 77 -41 83 0 7 48
62 106 122 120 126 137 152 137 215 0 45 -34 182 -72 293 -11 31 -18 57 -16
57 3 0 0 12 -6 26 -5 15 -12 43 -15 63 -3 20 -15 71 -26 115 -36 134 -79 167
-285 217 -70 17 -130 33 -132 35 -7 7 -8 173 -1 183 3 5 63 23 133 40 147 36
192 56 234 104 30 35 38 58 87 262 13 55 40 156 60 224 37 126 46 197 32 240
-9 26 -35 57 -158 185 -43 45 -78 86 -78 91 0 21 81 155 94 155 7 0 32 -7 55
-15 23 -8 44 -14 46 -14 3 0 31 -7 63 -16 31 -10 69 -19 85 -21 15 -2 42 -6
59 -8 64 -9 106 22 337 253 121 123 228 235 236 250 32 62 29 90 -27 289 -18
66 -27 116 -22 121 5 5 41 26 79 48 l71 40 114 -109 c63 -60 128 -116 145
-125 54 -29 126 -19 340 47 81 24 72 22 195 50 229 50 252 72 306 286 19 77
36 144 38 150 3 8 144 12 188 5z"/>
<path d="M3328 5245 c-2 -2 -28 -6 -58 -9 -76 -8 -237 -48 -345 -86 -181 -64
-381 -174 -510 -283 -105 -88 -283 -277 -350 -371 -80 -113 -171 -295 -223
-446 -35 -101 -46 -145 -67 -250 -23 -115 -22 -471 1 -607 34 -200 142 -468
259 -643 32 -47 60 -87 64 -90 3 -3 26 -30 51 -60 104 -129 258 -269 400 -364
178 -120 446 -228 645 -260 119 -18 426 -25 526 -11 326 45 606 163 847 356
115 93 278 263 362 380 125 174 237 424 279 624 48 223 46 572 -4 765 -14 52
-27 106 -31 120 -3 14 -9 34 -14 45 -4 11 -18 47 -31 80 -140 371 -480 744
-849 930 -129 65 -326 132 -440 150 -25 4 -52 9 -60 10 -60 11 -444 28 -452
20z m402 -455 c382 -62 758 -342 937 -697 102 -202 137 -352 136 -593 0 -194
-14 -290 -59 -415 -169 -470 -577 -813 -1044 -879 -119 -16 -369 -12 -468 9
-146 30 -312 101 -452 193 -252 166 -430 401 -530 699 -38 114 -51 211 -54
388 -2 223 26 358 114 552 158 342 463 604 831 713 58 17 134 34 170 39 89 11
329 6 419 -9z"/>
</g>
</svg>
